<?xml version="1.0" standalone="no"?>
<!DOCTYPE svg PUBLIC "-//W3C//DTD SVG 20010904//EN"
 "http://www.w3.org/TR/2001/REC-SVG-20010904/DTD/svg10.dtd">
<svg version="1.0" xmlns="http://www.w3.org/2000/svg"
 width="124.000000pt" height="131.000000pt" viewBox="0 0 374.000000 25.000000"
 preserveAspectRatio="xMidYMid meet">

<g transform="translate(0.000000,251.000000) scale(0.100000,-0.100000)"
fill="#FFFFFF" stroke="none">
<path d="M2500 3113 c0 -23 45 -75 79 -93 52 -26 54 -25 37 9 -27 51 -116 115
-116 84z"/>
<path d="M1947 3077 c-32 -34 -66 -111 -54 -124 9 -8 74 57 87 86 6 16 10 40
8 53 -4 22 -5 22 -41 -15z"/>
<path d="M2080 3075 c18 -22 81 -38 109 -28 23 9 23 10 -12 26 -19 9 -52 17
-72 17 -32 0 -36 -2 -25 -15z"/>
<path d="M2358 3074 c12 -8 39 -18 60 -20 l37 -5 -24 20 c-14 13 -37 21 -59
21 -36 0 -36 0 -14 -16z"/>
<path d="M2288 3043 c-30 -32 -58 -91 -58 -125 0 -21 2 -20 34 11 41 39 59 78
54 116 l-3 27 -27 -29z"/>
<path d="M2675 3020 c30 -20 85 -27 85 -12 0 14 -48 32 -83 32 l-32 0 30 -20z"/>
<path d="M2060 3015 c0 -26 26 -79 49 -99 18 -17 21 -17 21 -3 0 30 -30 92
-50 105 -17 10 -20 10 -20 -3z"/>
<path d="M2517 3003 c-8 -10 -18 -31 -22 -48 l-6 -30 25 28 c14 15 26 37 26
48 0 23 -3 24 -23 2z"/>
<path d="M2410 2990 c0 -12 8 -35 17 -53 l18 -32 3 32 c3 34 -12 73 -28 73 -6
0 -10 -9 -10 -20z"/>
<path d="M1780 2994 c0 -18 23 -43 50 -54 44 -18 46 -7 5 29 -33 29 -55 39
-55 25z"/>
<path d="M2800 2983 c0 -21 26 -63 40 -63 12 0 -8 56 -26 71 -11 9 -14 8 -14
-8z"/>
<path d="M2160 2978 c0 -26 11 -48 31 -59 28 -15 25 13 -6 48 -18 21 -24 24
-25 11z"/>
<path d="M1973 2959 c-23 -11 -47 -27 -54 -35 -9 -12 -6 -14 19 -14 41 0 78
18 97 47 14 21 14 23 -2 23 -10 0 -37 -9 -60 -21z"/>
<path d="M2705 2943 c16 -39 60 -83 83 -83 16 0 15 5 -3 40 -14 27 -73 80 -89
80 -3 0 1 -17 9 -37z"/>
<path d="M1594 2935 c-39 -16 -53 -35 -26 -35 21 0 70 35 62 43 -3 3 -19 -1
-36 -8z"/>
<path d="M1665 2914 c-15 -14 -25 -27 -22 -30 8 -8 70 21 86 39 23 29 -32 21
-64 -9z"/>
<path d="M2373 2915 c28 -25 57 -33 57 -16 0 13 -46 41 -67 41 -15 -1 -13 -5
10 -25z"/>
<path d="M2541 2926 c-7 -8 -11 -23 -8 -33 3 -14 6 -12 16 11 13 33 9 43 -8
22z"/>
<path d="M2617 2900 c-25 -29 -52 -99 -42 -108 9 -10 73 68 78 95 8 42 -7 48
-36 13z"/>
<path d="M2913 2895 c18 -16 40 -25 63 -25 19 0 34 2 34 5 0 13 -68 45 -95 45
l-30 -1 28 -24z"/>
<path d="M2256 2895 c-11 -8 -17 -18 -13 -21 8 -9 67 16 67 27 0 14 -33 10
-54 -6z"/>
<path d="M1762 2883 c3 -19 63 -63 85 -63 22 0 -3 38 -40 60 -39 24 -49 25
-45 3z"/>
<path d="M2690 2876 c0 -25 27 -73 45 -79 8 -4 15 -4 15 -1 0 15 -29 71 -43
83 -15 12 -17 11 -17 -3z"/>
<path d="M2000 2872 c0 -12 47 -32 75 -32 35 0 31 16 -6 29 -38 13 -69 14 -69
3z"/>
<path d="M2330 2873 c0 -5 7 -18 15 -29 12 -16 14 -16 15 -3 0 9 -7 22 -15 29
-8 7 -15 8 -15 3z"/>
<path d="M1300 2864 c0 -3 7 -21 15 -38 15 -30 77 -76 104 -76 19 0 -19 59
-54 85 -32 23 -65 38 -65 29z"/>
<path d="M1908 2841 c-18 -16 -30 -32 -26 -36 6 -6 68 21 68 29 0 3 3 11 6 20
10 25 -13 19 -48 -13z"/>
<path d="M2162 2853 c-16 -30 -24 -83 -14 -83 12 0 42 61 42 84 0 21 -17 20
-28 -1z"/>
<path d="M2400 2851 c-12 -24 -13 -31 -2 -31 5 0 14 11 20 25 14 29 -2 34 -18
6z"/>
<path d="M3099 2863 c-14 -2 -41 -18 -60 -34 l-34 -30 40 5 c40 6 85 32 93 54
2 7 0 11 -5 11 -4 -1 -20 -4 -34 -6z"/>
<path d="M1458 2844 c-11 -11 -10 -92 2 -99 5 -3 12 6 16 20 7 30 -7 91 -18
79z"/>
<path d="M1593 2843 c-27 -5 -30 -18 -7 -27 24 -9 92 -7 99 3 8 15 -55 31 -92
24z"/>
<path d="M2246 2835 c-9 -9 -16 -22 -16 -28 0 -6 10 -2 22 11 12 12 19 24 16
27 -3 3 -13 -1 -22 -10z"/>
<path d="M2812 2834 c-12 -8 -22 -20 -22 -25 0 -15 41 -1 65 22 19 19 19 19
-1 19 -11 0 -30 -7 -42 -16z"/>
<path d="M2440 2819 c0 -13 7 -33 15 -43 15 -19 15 -19 15 5 0 13 -7 33 -15
43 -15 19 -15 19 -15 -5z"/>
<path d="M2480 2823 c0 -11 7 -27 16 -34 15 -12 16 -11 9 11 -10 35 -25 49
-25 23z"/>
<path d="M1971 2785 c0 -35 1 -37 10 -17 6 15 5 30 -1 40 -7 13 -9 8 -9 -23z"/>
<path d="M2107 2798 c-10 -15 -17 -39 -15 -55 l3 -28 18 27 c10 15 17 39 15
55 l-3 28 -18 -27z"/>
<path d="M2305 2810 c3 -5 18 -10 33 -10 21 0 24 2 12 10 -20 13 -53 13 -45 0z"/>
<path d="M2885 2801 c-18 -7 -17 -9 12 -24 34 -18 99 -22 121 -8 10 6 2 13
-27 25 -44 17 -74 19 -106 7z"/>
<path d="M1520 2786 c0 -31 30 -75 52 -76 12 0 -13 57 -33 76 -18 16 -19 16
-19 0z"/>
<path d="M2627 2778 c-10 -15 -17 -39 -15 -55 l3 -28 18 27 c10 15 17 39 15
55 l-3 28 -18 -27z"/>
<path d="M2842 2784 c10 -10 20 -15 24 -12 3 4 -5 12 -18 18 -22 12 -22 12 -6
-6z"/>
<path d="M1770 2781 l-25 -7 22 -12 c26 -14 99 -16 108 -3 4 8 -58 33 -75 30
-3 -1 -16 -4 -30 -8z"/>
<path d="M1928 2758 c12 -12 24 -19 27 -16 3 3 -1 13 -10 22 -9 9 -22 16 -28
16 -6 0 -2 -10 11 -22z"/>
<path d="M1287 2764 c-13 -13 -7 -71 8 -84 13 -11 15 -8 14 21 -1 41 -12 73
-22 63z"/>
<path d="M2370 2750 c0 -10 -20 -36 -46 -57 -58 -49 -80 -86 -89 -149 -5 -41
-12 -56 -36 -73 -48 -35 -69 -79 -69 -141 0 -30 -4 -60 -8 -67 -4 -6 -7 26 -8
70 -1 94 -23 149 -91 227 -56 64 -66 85 -58 131 9 55 -1 49 -13 -8 -11 -52 -3
-79 43 -142 14 -19 23 -36 21 -38 -2 -2 -27 9 -57 24 -42 21 -73 28 -136 31
l-83 4 -45 49 c-47 51 -63 52 -20 1 13 -16 29 -40 34 -54 9 -23 16 -25 89 -30
124 -9 183 -43 231 -133 19 -35 21 -57 21 -187 l0 -147 -72 6 c-40 3 -77 9
-82 14 -6 5 -23 9 -39 9 -15 0 -37 5 -48 10 -13 7 -19 7 -19 1 0 -6 10 -13 23
-15 49 -10 85 -17 148 -29 57 -11 74 -20 128 -67 84 -73 95 -96 97 -200 0 -59
6 -95 17 -117 21 -40 57 -209 57 -267 0 -41 -27 -152 -35 -144 -2 2 3 31 11
63 17 65 16 89 -15 232 -42 199 -104 253 -323 283 -107 15 -129 28 -168 96
-41 73 -39 134 6 186 16 19 42 61 58 95 25 53 28 67 21 109 l-8 49 -12 -72
c-7 -39 -19 -81 -27 -92 -15 -22 -86 -81 -97 -81 -14 0 -29 18 -65 73 -21 31
-42 57 -46 57 -13 0 -41 60 -51 105 -24 118 -28 124 -26 45 2 -67 6 -81 40
-136 21 -33 40 -78 44 -100 3 -21 12 -51 20 -66 l13 -28 -72 6 c-69 6 -78 4
-150 -29 -91 -42 -104 -55 -20 -21 94 39 136 41 180 10 21 -14 46 -26 55 -26
12 0 17 -9 17 -32 0 -46 36 -113 82 -152 l40 -35 -42 -21 c-70 -36 -150 -37
-246 -4 -11 4 -4 -5 15 -20 46 -35 84 -40 188 -26 119 16 238 14 300 -5 40
-12 67 -30 110 -73 l57 -57 -26 45 c-37 65 -93 101 -191 122 l-82 18 69 -5
c115 -10 168 -41 212 -127 13 -27 22 -48 20 -48 -3 0 11 -25 29 -56 40 -66 59
-148 52 -219 -6 -61 -61 -251 -92 -320 -12 -27 -26 -63 -31 -80 -7 -23 -18
-32 -53 -42 -24 -7 -51 -19 -60 -27 -9 -7 -32 -17 -51 -21 -19 -4 -48 -13 -65
-20 -16 -7 -79 -18 -140 -25 -245 -25 -600 -100 -810 -170 -49 -16 -79 -28
-65 -25 180 31 589 75 900 96 226 16 954 16 1180 0 311 -21 714 -65 900 -96
53 -9 -132 48 -276 85 -165 43 -368 82 -540 104 -78 10 -126 22 -162 40 -45
23 -64 26 -149 26 -226 0 -265 51 -260 340 1 115 -2 152 -15 181 -8 20 -19 67
-23 106 -10 99 7 136 77 168 73 33 184 49 292 41 87 -6 91 -5 135 23 25 17 60
35 76 41 49 19 153 14 213 -9 29 -12 56 -21 60 -21 17 1 -115 70 -135 70 -26
0 -53 10 -53 19 0 3 14 13 32 20 18 8 27 16 20 19 -21 7 -125 -28 -188 -64
-34 -18 -64 -31 -67 -27 -11 10 22 61 57 88 18 14 53 32 77 40 l44 14 -45 -5
c-25 -3 -62 -14 -82 -24 -43 -20 -47 -14 -17 24 11 14 16 26 10 26 -10 0 -24
-17 -84 -100 -47 -64 -63 -70 -206 -70 l-123 0 -59 -36 c-49 -30 -59 -40 -59
-64 0 -15 -6 -43 -14 -61 -10 -24 -12 -47 -6 -79 5 -25 7 -47 5 -49 -9 -8 -26
85 -20 108 3 14 10 45 14 68 10 52 20 65 71 88 27 12 40 24 40 38 0 34 32 89
64 108 46 28 85 37 248 53 136 13 197 29 213 56 3 5 -10 3 -29 -5 -46 -19 -49
-19 -43 6 5 19 4 19 -16 6 -26 -17 -143 -41 -157 -32 -19 11 -10 21 53 61 57
37 65 46 84 100 l22 59 -35 -40 c-24 -27 -34 -33 -30 -20 14 54 17 115 7 132
-8 14 -10 6 -11 -40 0 -133 -70 -204 -239 -243 -44 -10 -91 -29 -122 -50 -28
-19 -54 -32 -59 -29 -14 9 2 99 21 119 12 13 40 22 86 28 41 4 89 19 122 35
67 35 80 59 14 27 -26 -13 -73 -26 -103 -29 -54 -5 -54 -5 -24 9 17 8 39 27
49 43 10 15 29 41 44 57 l26 30 -29 -18 c-15 -10 -42 -33 -58 -52 -16 -18 -55
-45 -86 -59 -65 -30 -92 -53 -132 -111 -20 -28 -26 -45 -19 -55 5 -8 8 -30 8
-49 l-1 -35 -10 35 c-6 19 -19 56 -29 82 -11 26 -19 71 -19 102 l0 56 61 45
c34 25 73 47 88 50 29 5 159 49 261 88 46 18 59 26 45 29 -17 4 -15 7 12 17
17 7 34 20 38 29 5 14 4 15 -6 5 -7 -7 -23 -13 -36 -13 -12 0 -37 -13 -56 -30
-40 -35 -122 -57 -144 -39 -19 16 -9 57 22 89 14 14 37 40 52 58 14 19 34 37
43 40 14 6 14 9 -2 25 -17 16 -18 16 -18 -2 0 -10 -7 -24 -15 -31 -22 -18 -20
6 5 55 l19 40 -22 -27 c-13 -16 -29 -28 -37 -28 -13 0 -13 -2 -1 -9 22 -14 6
-55 -43 -110 -24 -27 -46 -60 -49 -73 -5 -20 -20 -30 -69 -48 -99 -36 -173
-76 -202 -110 -30 -37 -31 -39 -11 -87 23 -54 17 -74 -6 -23 -12 25 -25 82
-30 127 -8 80 -8 84 27 167 58 138 114 175 264 177 l75 0 -40 15 c-25 9 -69
14 -115 13 -65 -2 -75 0 -78 15 -6 28 28 106 59 139 25 25 40 77 24 77 -3 0
-5 -9 -5 -20z m-667 -838 c23 -50 73 -87 144 -107 34 -9 40 -13 22 -14 -37 -1
-88 18 -128 47 -33 25 -63 80 -75 137 -5 29 -5 29 6 5 6 -14 20 -44 31 -68z
m592 -464 c27 -121 21 -162 -36 -279 -29 -57 -58 -122 -66 -144 l-13 -40 4 37
c2 20 27 83 54 140 61 125 67 160 47 263 -8 44 -14 96 -13 115 1 33 1 33 5 5
2 -16 10 -60 18 -97z m55 -176 c-6 -25 -29 -87 -50 -137 -21 -49 -45 -128 -54
-174 -12 -65 -22 -91 -43 -113 -14 -15 -28 -26 -30 -24 -2 2 7 16 21 31 16 17
27 44 31 73 11 86 26 136 66 223 22 48 45 110 52 138 6 28 13 47 15 41 2 -6
-1 -32 -8 -58z m7 -127 c-7 -45 -73 -274 -82 -284 -10 -9 -5 16 21 110 14 51
34 122 43 156 9 35 18 63 20 63 2 0 1 -20 -2 -45z m12 -102 c-30 -59 -22 -122
23 -170 12 -13 17 -23 11 -23 -5 0 -20 12 -34 26 -20 21 -24 36 -24 88 0 42 6
70 18 89 25 38 28 33 6 -10z"/>
<path d="M2004 2745 c-15 -11 -16 -14 -3 -15 8 0 24 7 35 15 15 11 16 14 3 15
-8 0 -24 -7 -35 -15z"/>
<path d="M2415 2750 c7 -11 45 -33 45 -26 0 2 -7 12 -16 20 -17 18 -39 22 -29
6z"/>
<path d="M2750 2750 c-12 -8 -10 -10 10 -10 14 0 32 5 40 10 12 8 10 10 -10
10 -14 0 -32 -5 -40 -10z"/>
<path d="M2158 2734 c-36 -19 -35 -24 6 -24 19 0 44 9 57 20 l24 19 -30 0
c-16 0 -42 -7 -57 -15z"/>
<path d="M2260 2730 c-12 -8 -10 -10 10 -10 14 0 32 5 40 10 12 8 10 10 -10
10 -14 0 -32 -5 -40 -10z"/>
<path d="M2552 2724 c-12 -8 -22 -22 -22 -30 0 -24 19 -16 35 16 18 35 17 35
-13 14z"/>
<path d="M3044 2725 c-18 -14 -18 -14 7 -15 15 0 32 7 39 15 10 12 9 15 -7 15
-10 0 -28 -7 -39 -15z"/>
<path d="M1600 2724 c0 -15 27 -50 34 -43 4 3 -2 17 -13 30 -11 13 -20 19 -21
13z"/>
<path d="M1720 2725 c0 -13 68 -45 95 -45 l30 1 -28 24 c-18 16 -40 25 -63 25
-19 0 -34 -2 -34 -5z"/>
<path d="M1370 2699 c-13 -24 -4 -41 10 -19 10 16 13 40 5 40 -2 0 -9 -9 -15
-21z"/>
<path d="M1670 2701 c-12 -24 -13 -31 -2 -31 5 0 14 11 20 25 14 29 -2 34 -18
6z"/>
<path d="M2645 2711 c-3 -5 10 -15 29 -22 20 -7 32 -17 29 -25 -8 -20 32 -5
58 22 23 24 10 34 -20 15 -8 -5 -24 -3 -40 5 -31 16 -48 18 -56 5z"/>
<path d="M2849 2703 c-15 -9 -34 -29 -44 -46 l-17 -29 23 7 c38 11 101 86 72
85 -5 0 -20 -8 -34 -17z"/>
<path d="M3120 2702 c0 -30 98 -70 129 -53 11 7 9 12 -11 25 -42 28 -118 45
-118 28z"/>
<path d="M1418 2686 c-10 -7 -18 -16 -18 -20 0 -10 54 5 70 20 12 12 11 14
-10 14 -14 0 -33 -7 -42 -14z"/>
<path d="M2409 2680 c-13 -10 -20 -19 -16 -20 11 0 67 29 67 35 0 12 -30 3
-51 -15z"/>
<path d="M2957 2673 c-24 -44 -22 -62 4 -37 13 13 19 31 17 45 -3 23 -4 23
-21 -8z"/>
<path d="M1992 2683 c-20 -8 15 -29 63 -37 l40 -7 -20 20 c-22 21 -62 33 -83
24z"/>
<path d="M2197 2683 c-25 -25 23 -31 63 -8 25 14 25 14 -16 15 -22 0 -44 -3
-47 -7z"/>
<path d="M3071 2657 c-11 -19 -24 -56 -27 -83 l-5 -49 30 35 c34 37 48 89 33
115 -8 15 -12 12 -31 -18z"/>
<path d="M2560 2672 c0 -11 24 -22 48 -22 21 0 5 15 -25 25 -13 3 -23 2 -23
-3z"/>
<path d="M1250 2650 c13 -25 58 -55 68 -46 4 4 -8 21 -26 37 -38 34 -58 38
-42 9z"/>
<path d="M1575 2660 c3 -5 17 -10 31 -10 14 0 22 4 19 10 -3 6 -17 10 -31 10
-14 0 -22 -4 -19 -10z"/>
<path d="M1700 2663 c0 -21 22 -62 37 -67 11 -5 13 0 8 17 -8 26 -45 67 -45
50z"/>
<path d="M1870 2655 c0 -21 25 -68 44 -84 14 -12 16 -10 16 16 0 30 -33 83
-51 83 -5 0 -9 -7 -9 -15z"/>
<path d="M1476 2629 c-14 -11 -26 -24 -26 -29 0 -14 56 9 76 31 16 18 16 19
-3 19 -11 0 -32 -9 -47 -21z"/>
<path d="M2375 2633 c-22 -6 -55 -32 -55 -44 0 -13 57 11 76 32 17 19 15 21
-21 12z"/>
<path d="M1796 2614 c-9 -9 -14 -19 -11 -22 3 -3 13 2 22 11 9 9 14 19 11 22
-3 3 -13 -2 -22 -11z"/>
<path d="M2480 2620 c0 -14 48 -32 74 -28 18 3 17 6 -11 21 -36 19 -63 22 -63
7z"/>
<path d="M2620 2612 c6 -13 14 -21 18 -18 3 4 -2 14 -12 24 -18 16 -18 16 -6
-6z"/>
<path d="M2678 2613 c-29 -35 -33 -46 -9 -34 22 12 47 51 33 51 -5 0 -16 -8
-24 -17z"/>
<path d="M1360 2590 l-25 -20 25 1 c24 0 60 19 60 33 0 13 -36 5 -60 -14z"/>
<path d="M2041 2595 c18 -18 81 -30 106 -21 16 7 15 9 -7 21 -14 8 -45 14 -70
15 -40 0 -43 -2 -29 -15z"/>
<path d="M2792 2599 c-50 -19 18 -46 88 -34 48 8 51 19 9 34 -38 13 -66 13
-97 0z"/>
<path d="M3126 2594 c-9 -25 -7 -64 4 -64 6 0 10 18 10 40 0 43 -4 50 -14 24z"/>
<path d="M3011 2576 c-13 -33 -9 -43 8 -22 7 8 11 23 8 33 -3 14 -6 12 -16
-11z"/>
<path d="M1160 2580 c0 -17 52 -32 87 -25 38 7 43 20 11 29 -37 9 -98 7 -98
-4z"/>
<path d="M1507 2558 c-9 -21 -17 -45 -17 -55 0 -16 2 -15 21 3 15 15 19 30 17
55 l-4 34 -17 -37z"/>
<path d="M1577 2578 c-15 -5 -25 -14 -21 -19 10 -17 81 -10 105 11 l24 19 -40
0 c-22 0 -52 -5 -68 -11z"/>
<path d="M2954 2559 c-15 -19 -26 -69 -15 -69 5 0 14 13 21 29 14 35 10 61 -6
40z"/>
<path d="M1061 2540 c8 -13 26 -30 38 -39 22 -14 23 -14 20 4 -2 10 -20 28
-39 39 l-35 20 16 -24z"/>
<path d="M2144 2538 c-24 -26 -38 -58 -25 -58 15 0 53 49 49 65 -3 14 -6 13
-24 -7z"/>
<path d="M2562 2548 c-14 -14 -16 -28 -3 -28 9 0 24 30 18 36 -2 2 -9 -2 -15
-8z"/>
<path d="M2670 2550 c8 -5 24 -10 35 -10 17 0 17 2 5 10 -8 5 -24 10 -35 10
-17 0 -17 -2 -5 -10z"/>
<path d="M3190 2550 c-11 -7 -7 -10 17 -10 17 0 35 5 38 10 8 13 -35 13 -55 0z"/>
<path d="M3296 2541 c-13 -21 -25 -81 -15 -81 14 0 30 40 27 68 -2 20 -5 23
-12 13z"/>
<path d="M1150 2529 c0 -16 47 -59 65 -59 14 0 14 2 0 23 -17 27 -65 53 -65
36z"/>
<path d="M1429 2510 c25 -22 41 -26 41 -10 0 11 -33 30 -52 30 -7 -1 -3 -9 11
-20z"/>
<path d="M2877 2507 c-11 -29 -9 -43 4 -30 6 6 9 19 7 29 -3 18 -4 18 -11 1z"/>
<path d="M2670 2502 c0 -12 19 -26 26 -19 2 2 -2 10 -11 17 -9 8 -15 8 -15 2z"/>
<path d="M2740 2501 c0 -13 27 -21 73 -21 39 1 41 2 23 15 -21 16 -96 21 -96
6z"/>
<path d="M1290 2493 c0 -14 15 -30 38 -42 22 -12 23 -11 13 8 -12 21 -51 48
-51 34z"/>
<path d="M1848 2472 c-20 -33 -24 -72 -8 -72 16 0 31 39 28 71 l-3 31 -17 -30z"/>
<path d="M3014 2481 c-17 -10 -33 -28 -36 -39 -5 -18 -3 -19 22 -11 15 6 40
23 55 39 25 27 27 30 9 30 -10 0 -33 -9 -50 -19z"/>
<path d="M1515 2480 c-3 -6 5 -10 19 -10 14 0 28 5 31 10 3 6 -5 10 -19 10
-14 0 -28 -4 -31 -10z"/>
<path d="M2377 2482 c-17 -7 -16 -9 8 -20 14 -7 42 -12 63 -12 32 0 35 2 22
15 -19 18 -69 27 -93 17z"/>
<path d="M2515 2479 c-11 -17 0 -20 21 -4 17 13 17 14 2 15 -9 0 -20 -5 -23
-11z"/>
<path d="M3171 2468 c-38 -25 -78 -74 -69 -84 11 -10 83 34 97 59 22 40 10 51
-28 25z"/>
<path d="M1600 2455 l-25 -13 28 -7 c32 -8 64 -2 92 19 19 14 17 15 -25 15
-25 0 -56 -6 -70 -14z"/>
<path d="M1772 2445 c6 -14 15 -25 20 -25 11 0 10 7 -2 31 -16 28 -32 23 -18
-6z"/>
<path d="M2300 2435 c0 -16 9 -43 20 -60 l20 -30 0 36 c0 22 -8 46 -20 60
l-19 24 -1 -30z"/>
<path d="M2785 2429 c-19 -35 -10 -54 11 -25 13 19 20 56 9 56 -2 0 -12 -14
-20 -31z"/>
<path d="M1035 2436 c-16 -8 -39 -21 -49 -29 -19 -14 -19 -15 2 -21 30 -10 84
9 112 39 l23 25 -29 0 c-16 -1 -42 -7 -59 -14z"/>
<path d="M3260 2423 l-35 -16 31 -9 c23 -8 40 -6 70 7 35 15 37 18 19 25 -29
12 -46 11 -85 -7z"/>
<path d="M2735 2410 c10 -11 20 -18 23 -15 7 6 -18 35 -31 35 -5 0 -2 -9 8
-20z"/>
<path d="M1159 2405 c-29 -16 -46 -45 -26 -45 15 0 37 17 56 43 16 20 5 21
-30 2z"/>
<path d="M1390 2403 c0 -11 9 -31 21 -44 l20 -24 -6 30 c-3 17 -13 37 -21 45
-12 12 -14 12 -14 -7z"/>
<path d="M2855 2410 c3 -5 23 -10 43 -10 28 0 33 3 22 10 -20 13 -73 13 -65 0z"/>
<path d="M1531 2401 c-12 -8 -9 -11 13 -17 16 -4 32 -2 39 5 8 8 8 11 0 11 -6
0 -17 2 -25 5 -7 3 -20 1 -27 -4z"/>
<path d="M1240 2385 l-25 -14 26 -1 c15 0 32 7 39 15 17 20 -5 20 -40 0z"/>
<path d="M2603 2388 c-31 -15 -40 -41 -10 -33 29 9 68 45 47 44 -8 0 -25 -5
-37 -11z"/>
<path d="M1684 2375 c-18 -14 -18 -14 7 -15 14 0 34 7 45 15 18 14 18 14 -7
15 -14 0 -34 -7 -45 -15z"/>
<path d="M1923 2370 c-67 -30 -103 -103 -37 -75 29 12 92 80 83 90 -3 2 -23
-5 -46 -15z"/>
<path d="M2398 2385 c-8 -8 3 -55 13 -55 5 0 9 8 9 18 0 20 -14 44 -22 37z"/>
<path d="M2803 2373 c9 -2 23 -2 30 0 6 3 -1 5 -18 5 -16 0 -22 -2 -12 -5z"/>
<path d="M2963 2368 c-20 -26 -26 -41 -15 -34 12 7 36 46 29 46 -3 0 -9 -6
-14 -12z"/>
<path d="M3035 2360 c3 -5 18 -10 33 -10 21 0 24 2 12 10 -20 13 -53 13 -45 0z"/>
<path d="M3140 2351 c-13 -25 -13 -34 0 -26 16 10 32 45 21 45 -6 0 -15 -9
-21 -19z"/>
<path d="M1571 2333 c-12 -14 -19 -28 -17 -30 8 -8 45 17 56 37 17 31 -14 26
-39 -7z"/>
<path d="M3325 2353 c-11 -2 -31 -13 -45 -23 l-25 -20 30 0 c31 0 75 24 75 41
0 5 -3 8 -7 8 -5 -1 -17 -4 -28 -6z"/>
<path d="M3205 2338 c-22 -12 -45 -37 -45 -50 0 -14 50 15 65 39 17 25 11 28
-20 11z"/>
<path d="M1084 2329 c-7 -12 30 -29 62 -29 21 0 24 3 15 14 -13 16 -69 27 -77
15z"/>
<path d="M1292 2322 c-23 -23 -30 -52 -12 -52 14 0 43 47 38 62 -3 8 -12 4
-26 -10z"/>
<path d="M2810 2318 c0 -16 5 -28 10 -28 13 0 13 20 0 40 -8 12 -10 9 -10 -12z"/>
<path d="M1690 2313 c-31 -15 -32 -17 -13 -20 24 -5 63 12 63 27 0 13 -9 12
-50 -7z"/>
<path d="M969 2300 c21 -18 81 -28 81 -14 0 8 -67 34 -87 34 -15 -1 -15 -4 6
-20z"/>
<path d="M2850 2295 c-7 -8 -8 -15 -2 -15 5 0 15 7 22 15 7 8 8 15 2 15 -5 0
-15 -7 -22 -15z"/>
<path d="M3064 2274 c-39 -40 -43 -54 -14 -47 27 7 70 49 70 68 0 25 -20 17
-56 -21z"/>
<path d="M1995 2278 c-22 -10 -50 -47 -42 -55 3 -2 20 9 39 25 35 32 36 46 3
30z"/>
<path d="M2773 2273 c9 -2 23 -2 30 0 6 3 -1 5 -18 5 -16 0 -22 -2 -12 -5z"/>
<path d="M3309 2251 c-30 -30 -37 -51 -19 -51 17 0 60 47 60 65 0 22 -8 19
-41 -14z"/>
<path d="M1370 2240 c0 -17 8 -45 18 -63 l17 -32 3 42 c3 43 -11 83 -28 83 -6
0 -10 -14 -10 -30z"/>
<path d="M2945 2245 c-25 -24 -32 -45 -17 -45 14 0 52 31 62 51 16 29 -15 25
-45 -6z"/>
<path d="M3236 2248 c-9 -12 -16 -33 -16 -46 0 -20 3 -22 14 -13 15 13 32 69
23 77 -3 3 -12 -5 -21 -18z"/>
<path d="M1636 2252 c-6 -11 25 -22 64 -22 16 0 21 3 14 10 -15 15 -71 23 -78
12z"/>
<path d="M2881 2231 c-1 -24 2 -32 9 -25 7 7 7 19 1 35 -9 23 -10 22 -10 -10z"/>
<path d="M2713 2243 c-12 -2 -27 -11 -33 -19 -20 -23 43 -18 71 6 22 18 23 19
4 18 -11 0 -30 -3 -42 -5z"/>
<path d="M3170 2240 c0 -8 5 -22 10 -30 9 -13 10 -13 10 0 0 8 -5 22 -10 30
-9 13 -10 13 -10 0z"/>
<path d="M1050 2220 c-14 -10 -21 -22 -17 -26 9 -9 77 22 77 36 0 16 -33 11
-60 -10z"/>
<path d="M1198 2210 c26 -24 41 -30 78 -30 30 0 43 4 38 11 -11 18 -86 49
-119 48 l-30 0 33 -29z"/>
<path d="M1455 2230 c-17 -6 -16 -8 9 -14 16 -4 33 -3 38 2 12 12 -21 21 -47
12z"/>
<path d="M3110 2218 c0 -8 7 -23 15 -34 14 -19 14 -19 15 2 0 12 -7 27 -15 34
-12 10 -15 10 -15 -2z"/>
<path d="M3380 2212 c-41 -21 -55 -48 -19 -37 26 8 66 42 58 49 -3 3 -20 -2
-39 -12z"/>
<path d="M3441 2207 c-7 -9 -11 -24 -9 -34 3 -16 5 -15 17 5 15 29 10 50 -8
29z"/>
<path d="M2760 2201 c0 -11 39 -59 40 -49 0 14 -23 58 -32 58 -4 0 -8 -4 -8
-9z"/>
<path d="M3071 2160 c0 -40 2 -42 11 -22 8 16 8 28 0 45 -9 19 -11 17 -11 -23z"/>
<path d="M1100 2170 c0 -22 50 -80 69 -80 17 0 -17 62 -45 83 -23 18 -24 17
-24 -3z"/>
<path d="M1882 2181 c-10 -6 -6 -11 15 -19 56 -21 66 -22 101 -16 l36 7 -23
18 c-24 20 -104 26 -129 10z"/>
<path d="M2674 2175 c11 -8 29 -15 40 -15 21 1 21 1 2 15 -11 8 -29 15 -40 15
-21 -1 -21 -1 -2 -15z"/>
<path d="M2934 2180 c-37 -15 -38 -30 -2 -30 33 1 106 28 78 29 -8 1 -24 3
-35 6 -11 2 -30 0 -41 -5z"/>
<path d="M2400 2160 c-20 -15 -21 -20 -8 -20 22 0 68 21 68 32 0 15 -34 8 -60
-12z"/>
<path d="M1780 2150 c0 -11 5 -20 10 -20 6 0 10 9 10 20 0 11 -4 20 -10 20 -5
0 -10 -9 -10 -20z"/>
<path d="M3258 2163 c6 -2 18 -2 25 0 6 3 1 5 -13 5 -14 0 -19 -2 -12 -5z"/>
<path d="M1498 2149 c-10 -5 -18 -15 -18 -20 0 -12 36 -2 65 17 19 14 19 14
-5 14 -14 0 -33 -5 -42 -11z"/>
<path d="M1837 2143 c-4 -3 -7 -11 -7 -17 0 -6 5 -5 12 2 6 6 9 14 7 17 -3 3
-9 2 -12 -2z"/>
<path d="M3210 2140 c-9 -6 -7 -11 8 -19 25 -13 75 -15 68 -2 -10 15 -62 30
-76 21z"/>
<path d="M1045 2110 c18 -34 55 -59 55 -37 0 17 -45 67 -60 67 -6 0 -5 -11 5
-30z"/>
<path d="M1254 2126 c-18 -14 -18 -15 -1 -22 25 -9 88 3 106 21 14 13 10 15
-35 15 -28 0 -59 -6 -70 -14z"/>
<path d="M3483 2128 c-21 -28 -24 -38 -9 -32 14 5 30 33 23 41 -2 2 -9 -2 -14
-9z"/>
<path d="M2356 2121 c-7 -11 18 -21 52 -21 26 1 26 1 8 15 -22 17 -52 20 -60
6z"/>
<path d="M2751 2112 c-13 -25 -14 -52 -2 -52 10 0 26 58 18 67 -3 2 -10 -4
-16 -15z"/>
<path d="M3136 2121 c5 -5 23 -12 39 -16 29 -6 29 -6 11 9 -21 17 -67 23 -50
7z"/>
<path d="M3376 2108 c-3 -13 -6 -27 -6 -33 1 -15 30 27 30 42 0 22 -17 15 -24
-9z"/>
<path d="M892 2109 c9 -26 65 -50 107 -47 l41 3 -33 22 c-40 27 -122 43 -115
22z"/>
<path d="M2892 2111 c-11 -6 -10 -10 4 -15 21 -8 84 3 84 15 0 11 -71 11 -88
0z"/>
<path d="M3300 2074 c-32 -27 -66 -82 -56 -91 15 -15 92 57 99 93 6 31 -4 30
-43 -2z"/>
<path d="M3100 2070 c20 -13 53 -13 45 0 -3 6 -18 10 -33 10 -21 0 -24 -2 -12
-10z"/>
<path d="M1768 2063 c6 -2 18 -2 25 0 6 3 1 5 -13 5 -14 0 -19 -2 -12 -5z"/>
<path d="M1145 2038 c-20 -16 -39 -21 -66 -19 -39 3 -119 -32 -119 -52 0 -17
91 0 121 22 16 12 29 17 29 11 0 -17 17 -11 49 16 50 42 37 62 -14 22z"/>
<path d="M3430 2050 c-8 -5 -11 -12 -8 -16 9 -9 76 4 83 16 8 13 -55 13 -75 0z"/>
<path d="M2641 2023 c-12 -14 -19 -28 -17 -30 8 -8 45 17 56 37 17 31 -14 26
-39 -7z"/>
<path d="M2950 2043 c0 -5 7 -18 15 -29 12 -16 14 -16 15 -3 0 9 -7 22 -15 29
-8 7 -15 8 -15 3z"/>
<path d="M3009 2029 c-20 -20 -20 -37 0 -24 13 7 34 45 26 45 -3 0 -14 -9 -26
-21z"/>
<path d="M1898 2023 c-15 -10 -30 -24 -33 -31 -8 -22 46 -5 75 24 23 22 23 24
5 24 -11 0 -32 -8 -47 -17z"/>
<path d="M3107 2028 c-35 -13 -25 -28 18 -28 39 0 87 19 79 31 -7 12 -62 10
-97 -3z"/>
<path d="M1220 2020 c20 -13 63 -13 55 0 -3 6 -21 10 -38 10 -24 0 -28 -3 -17
-10z"/>
<path d="M1381 1993 c13 -34 48 -73 66 -73 17 0 16 4 -2 40 -9 16 -29 37 -45
45 l-30 15 11 -27z"/>
<path d="M3380 1997 l-25 -11 29 -4 c15 -2 40 -1 54 3 21 5 23 8 11 16 -18 11
-38 10 -69 -4z"/>
<path d="M1259 1987 c-19 -14 -39 -50 -39 -69 1 -18 60 49 60 67 0 18 0 18
-21 2z"/>
<path d="M1480 1995 c0 -10 61 -35 87 -35 l28 1 -24 19 c-20 17 -91 29 -91 15z"/>
<path d="M1310 1978 c0 -8 9 -23 20 -33 16 -15 20 -15 20 -3 0 8 -9 23 -20 33
-16 15 -20 15 -20 3z"/>
<path d="M3005 1980 c3 -5 16 -10 28 -10 18 0 19 2 7 10 -20 13 -43 13 -35 0z"/>
<path d="M3071 1944 c-26 -33 -27 -48 -2 -32 22 13 46 58 32 58 -5 0 -19 -12
-30 -26z"/>
<path d="M1061 1936 c-20 -11 -21 -14 -6 -19 37 -15 115 2 115 25 0 13 -82 9
-109 -6z"/>
<path d="M3279 1930 c13 -11 37 -20 55 -20 l31 1 -24 19 c-13 11 -37 20 -55
20 l-31 -1 24 -19z"/>
<path d="M3430 1935 c-11 -13 -8 -15 18 -15 36 0 62 9 62 21 0 15 -67 10 -80
-6z"/>
<path d="M2970 1920 c-12 -8 -11 -10 7 -10 12 0 25 5 28 10 8 13 -15 13 -35 0z"/>
<path d="M3190 1923 c0 -10 52 -63 62 -63 14 0 -20 57 -37 64 -21 8 -25 8 -25
-1z"/>
<path d="M3140 1900 c-6 -12 -9 -24 -7 -27 3 -2 11 5 17 17 6 12 9 24 7 27 -3
2 -11 -5 -17 -17z"/>
<path d="M1283 1895 c-13 -23 -16 -48 -13 -90 2 -30 2 -30 21 13 15 32 18 50
11 70 -8 26 -9 26 -19 7z"/>
<path d="M1104 1881 c-18 -11 -35 -24 -38 -30 -12 -20 40 -12 68 10 48 38 25
54 -30 20z"/>
<path d="M1185 1865 c-3 -16 -9 -36 -11 -44 -2 -7 1 -32 7 -54 10 -39 12 -40
25 -22 17 24 17 80 0 120 l-13 30 -8 -30z"/>
<path d="M1350 1885 c0 -17 33 -66 51 -76 19 -10 20 -9 14 13 -4 12 -12 29
-18 36 -12 15 -47 35 -47 27z"/>
<path d="M2772 1862 c-7 -13 -12 -33 -10 -45 l3 -22 13 23 c7 13 12 33 10 45
l-3 22 -13 -23z"/>
<path d="M1450 1867 c0 -1 -4 -18 -10 -37 -8 -29 -8 -32 4 -20 19 20 30 60 17
60 -6 0 -11 -1 -11 -3z"/>
<path d="M2693 1836 c9 -54 27 -71 27 -24 0 21 -7 41 -17 49 -15 13 -16 11
-10 -25z"/>
<path d="M3352 1863 c-25 -9 0 -23 40 -23 23 0 39 2 36 5 -10 10 -63 22 -76
18z"/>
<path d="M2993 1853 c9 -2 23 -2 30 0 6 3 -1 5 -18 5 -16 0 -22 -2 -12 -5z"/>
<path d="M3155 1850 c3 -5 15 -10 25 -10 10 0 22 5 25 10 4 6 -7 10 -25 10
-18 0 -29 -4 -25 -10z"/>
<path d="M3130 1829 c0 -9 7 -22 15 -29 19 -16 19 0 0 26 -12 16 -14 16 -15 3z"/>
<path d="M2611 1806 c13 -28 45 -47 35 -20 -3 8 -6 17 -6 19 0 3 -9 9 -20 15
-18 10 -19 9 -9 -14z"/>
<path d="M3232 1814 c-12 -8 -22 -19 -22 -25 0 -18 39 -9 67 16 l28 24 -25 1
c-14 0 -36 -7 -48 -16z"/>
<path d="M1501 1805 c20 -20 73 -35 89 -25 17 11 -39 40 -77 40 -24 0 -26 -2
-12 -15z"/>
<path d="M3338 1808 c17 -8 26 -8 34 0 9 9 4 12 -22 11 -33 0 -34 -1 -12 -11z"/>
<path d="M1350 1765 c-17 -20 9 -21 36 0 19 14 19 14 -2 15 -12 0 -27 -7 -34
-15z"/>
<path d="M3281 1762 c-13 -25 -14 -32 -2 -32 9 0 23 41 16 48 -2 2 -8 -5 -14
-16z"/>
<path d="M1385 1726 c-28 -12 -29 -13 -9 -20 22 -7 74 11 74 26 0 12 -30 9
-65 -6z"/>
<path d="M3030 1721 c5 -11 22 -29 37 -41 40 -31 44 -4 4 32 -37 33 -57 37
-41 9z"/>
<path d="M3126 1728 c12 -22 47 -58 56 -58 15 0 8 21 -17 45 -25 26 -51 34
-39 13z"/>
<path d="M1733 1708 c-21 -22 -43 -68 -43 -89 0 -21 43 15 56 48 22 51 15 71
-13 41z"/>
<path d="M2960 1717 c0 -21 28 -85 41 -93 21 -12 7 57 -16 83 -20 23 -24 25
-25 10z"/>
<path d="M1615 1705 c-17 -7 -44 -28 -59 -46 -24 -28 -26 -35 -12 -37 24 -5
81 33 95 64 15 34 13 35 -24 19z"/>
<path d="M3295 1710 c3 -5 19 -10 36 -10 16 0 29 5 29 10 0 6 -16 10 -36 10
-21 0 -33 -4 -29 -10z"/>
<path d="M1816 1689 c-26 -20 -73 -99 -60 -99 19 0 76 46 89 70 27 53 16 64
-29 29z"/>
<path d="M1478 1684 c-35 -18 -56 -54 -33 -54 16 0 65 46 65 61 0 11 1 11 -32
-7z"/>
<path d="M2896 1672 c-18 -35 -21 -107 -6 -117 24 -15 51 102 31 134 -7 11
-13 7 -25 -17z"/>
<path d="M3270 1691 c0 -6 4 -13 10 -16 6 -3 7 1 4 9 -7 18 -14 21 -14 7z"/>
<path d="M2690 1667 c0 -20 35 -79 56 -96 52 -41 64 -20 23 39 -15 22 -79 68
-79 57z"/>
</g>
</svg>
